<svg xmlns="http://www.w3.org/2000/svg" width="562" height="562" viewBox="0 0 562 562">
  <g id="usericon" transform="translate(-633 -61)">
    <circle id="Ellipse_1" data-name="Ellipse 1" cx="281" cy="281" r="281" transform="translate(633 61)" fill="#1e1d2b"/>
    <path id="_8530710_user_icon" data-name="8530710_user_icon" d="M159.36,154.482c-14.584,0-21.6,8.131-45.532,8.131s-30.9-8.131-45.532-8.131A68.315,68.315,0,0,0,0,222.779v13.009A24.4,24.4,0,0,0,24.392,260.18H203.266a24.4,24.4,0,0,0,24.392-24.392V222.779A68.315,68.315,0,0,0,159.36,154.482Zm43.905,81.306H24.392V222.779A43.982,43.982,0,0,1,68.3,178.874c7.419,0,19.463,8.131,45.532,8.131,26.272,0,38.062-8.131,45.532-8.131a43.982,43.982,0,0,1,43.905,43.905Zm-89.437-89.437A73.176,73.176,0,1,0,40.653,73.176,73.195,73.195,0,0,0,113.829,146.351Zm0-121.96A48.784,48.784,0,1,1,65.045,73.176,48.862,48.862,0,0,1,113.829,24.392Z" transform="translate(800.171 204.91)" fill="#6468b1"/>
  </g>
</svg>
